<svg width="30" height="47" viewBox="0 0 30 47" fill="none" xmlns="http://www.w3.org/2000/svg">
<path d="M8.36631 35.1901V35.9953C8.36631 36.8984 8.36631 37.8777 8.10518 39.2051L7.25649 39.1289C7.37618 38.5631 7.44146 38.0572 7.48498 37.5948L1.58769 37.8777L1.468 37.1486L7.51763 36.9528C7.52851 36.6155 7.52851 36.3 7.52851 35.9953V35.8865H1.70738V35.1901H8.36631ZM9.46526 39.8579V40.5543H0.662837V39.8579H4.25344V38.4326H5.11301V39.8579H9.46526ZM8.59481 43.5356V44.2319H1.78354V41.3812H2.64311V43.5356H8.59481ZM18.4962 34.7223V41.9688H17.6801V34.7223H18.4962ZM16.6138 34.9181V41.7185H15.7869V38.1605H14.4812V37.4751H15.7869V34.9181H16.6138ZM18.7899 43.4594V44.1775H12.1854V41.1636H13.0559V43.4594H18.7899ZM14.4268 35.5166V36.2238H11.5543V37.5621H14.0242V38.2367H11.5543V39.6512C12.9525 39.6458 13.8229 39.6077 14.862 39.3901L14.9491 40.0864C13.8284 40.3149 12.9144 40.3584 11.3476 40.3584H10.7383V35.5166H14.4268ZM28.7675 42.4257V43.1439H19.9106V42.4257H28.7675ZM24.7634 36.9746C24.7634 38.574 26.3629 39.7818 28.2017 40.1082L27.8535 40.8045C26.3248 40.4944 24.9321 39.6566 24.3282 38.389C23.7134 39.6566 22.3207 40.4944 20.792 40.8045L20.4547 40.1082C22.2826 39.7818 23.893 38.574 23.893 36.9746H20.7376V36.2782H23.9038V34.9508H24.7416V36.2782H27.9188V36.9746H24.7634Z" fill="black"/>
<path d="M7.3443 22.3035C7.35074 22.6775 7.45955 23.0426 7.65889 23.359C7.85822 23.6754 8.14047 23.9311 8.47494 24.0982C8.80895 24.287 9.18606 24.3862 9.56969 24.3862C9.95332 24.3862 10.3305 24.287 10.6644 24.0982L26.1883 14.4968C26.5261 14.3341 26.8111 14.0793 27.0106 13.7618C27.21 13.4443 27.3157 13.077 27.3157 12.7021C27.3157 12.3272 27.21 11.9599 27.0106 11.6424C26.8111 11.3249 26.5261 11.0702 26.1883 10.9074L10.6644 1.37774C10.3305 1.18902 9.95332 1.08984 9.56969 1.08984C9.18606 1.08984 8.80895 1.18902 8.47494 1.37774C8.14047 1.54498 7.85822 1.8007 7.65889 2.11711C7.45955 2.43351 7.35074 2.79851 7.3443 3.17241V22.3035Z" stroke="black" stroke-width="1.69201" stroke-linecap="round" stroke-linejoin="round"/>
</svg>
