<svg width="79" height="109" viewBox="0 0 79 109" fill="none" xmlns="http://www.w3.org/2000/svg">
<rect x="0.75" y="0.75" width="77.5" height="107.5" rx="3.32846" stroke="#D1D1D1" stroke-width="1.5"/>
<path d="M28.7439 81.2793C28.7321 82.3767 29.4047 83.4034 31.2574 83.7928L30.5022 85.1263C29.21 84.8254 28.3545 84.1941 27.8588 83.3562C27.3691 84.2767 26.49 84.9906 25.1683 85.3151L24.3776 83.9934C26.2657 83.5686 26.962 82.4239 26.962 81.2793V80.7364H28.7439V81.2793ZM33.476 80.3116V91.1211H31.7767V80.3116H33.476ZM24.3304 85.8934C26.2303 85.9052 28.8973 85.8816 31.1748 85.5511L31.2928 86.7666C30.4491 86.9377 29.5758 87.0498 28.7203 87.1206V90.8142H27.021V87.2268C26.1241 87.2681 25.2745 87.274 24.531 87.274L24.3304 85.8934ZM43.9404 80.3116V91.1211H42.2057V88.8317H40.0933V87.5691H42.2057V80.3116H43.9404ZM34.5706 85.7399C36.5767 85.7399 39.2437 85.7281 41.5566 85.4095L41.6628 86.6486C40.7483 86.8138 39.8042 86.92 38.8779 86.979V90.8142H37.155V87.0734C36.3053 87.1029 35.497 87.1088 34.7594 87.1088L34.5706 85.7399ZM38.099 80.7128C39.6921 80.7128 40.884 81.6569 40.884 82.9668C40.884 84.3121 39.6921 85.2089 38.099 85.2089C36.4705 85.2089 35.2904 84.3121 35.3022 82.9668C35.2904 81.6569 36.4705 80.7128 38.099 80.7128ZM38.099 81.9873C37.3792 81.9991 36.8953 82.3531 36.8953 82.9668C36.8953 83.604 37.3792 83.9226 38.099 83.9108C38.7835 83.9226 39.2673 83.604 39.2791 82.9668C39.2673 82.3531 38.7835 81.9991 38.099 81.9873ZM54.8296 88.5249V89.9056H44.9288V88.5249H47.0647V85.9524C46.2564 85.439 45.7666 84.672 45.7666 83.722C45.7666 81.9519 47.5014 80.7836 49.8615 80.7836C52.2216 80.7836 53.9799 81.9519 53.9799 83.722C53.9799 84.6543 53.502 85.4095 52.7173 85.917V88.5249H54.8296ZM49.8615 82.1171C48.3864 82.1053 47.4423 82.6836 47.4541 83.722C47.4423 84.7487 48.3864 85.3505 49.8615 85.3505C51.3248 85.3505 52.2924 84.7487 52.2924 83.722C52.2924 82.6836 51.3248 82.1053 49.8615 82.1171ZM48.7404 88.5249H50.9944V86.566C50.6344 86.6309 50.2568 86.6604 49.8615 86.6604C49.4662 86.6604 49.0944 86.6309 48.7404 86.566V88.5249Z" fill="#5A5A5A"/>
<circle cx="39.7506" cy="44.1979" r="25.7506" fill="#FF37D3"/>
<circle cx="45.8887" cy="38.3589" r="6.13824" fill="white"/>
<path d="M43.9233 34.999C43.0139 34.999 42.2765 35.821 42.2765 36.8351C42.2765 37.6537 42.5647 39.5966 45.4015 41.5606C45.4524 41.5954 45.5107 41.6138 45.5702 41.6138C45.6297 41.6138 45.688 41.5954 45.7388 41.5606C48.5757 39.5966 48.8639 37.6537 48.8639 36.8351C48.8639 35.821 48.1264 34.999 47.217 34.999C46.3076 34.999 45.5702 36.1118 45.5702 36.1118C45.5702 36.1118 44.8327 34.999 43.9233 34.999Z" fill="#C70451"/>
<circle cx="33.6124" cy="38.3589" r="6.13824" fill="white"/>
<path d="M31.6468 34.999C30.7375 34.999 30 35.821 30 36.8351C30 37.6537 30.2882 39.5966 33.1251 41.5606C33.1759 41.5954 33.2342 41.6138 33.2937 41.6138C33.3532 41.6138 33.4115 41.5954 33.4623 41.5606C36.2992 39.5966 36.5874 37.6537 36.5874 36.8351C36.5874 35.821 35.8499 34.999 34.9405 34.999C34.0311 34.999 33.2937 36.1118 33.2937 36.1118C33.2937 36.1118 32.5562 34.999 31.6468 34.999Z" fill="#C70451"/>
<path d="M51.6356 47.0984C52.9131 47.0984 53.9724 48.145 53.7072 49.3947C53.1804 51.8763 51.8076 54.181 49.7392 55.9909C47.0438 58.3493 43.3881 59.6743 39.5763 59.6743C35.7645 59.6743 32.1088 58.3493 29.4135 55.9909C27.345 54.181 25.9722 51.8763 25.4454 49.3947C25.1802 48.145 26.2395 47.0984 27.5171 47.0984L39.5763 47.0984H51.6356Z" fill="black"/>
<path d="M39.5023 52.2393C41.883 52.2393 44.1665 53.09 45.85 54.6025C46.7355 55.3982 47.4128 56.3448 47.8597 57.373C45.4517 58.8595 42.561 59.6738 39.5746 59.6738C36.5395 59.6737 33.6043 58.8318 31.1732 57.2988C31.6204 56.2987 32.2901 55.3795 33.1547 54.6025C34.8381 53.0899 37.1216 52.2394 39.5023 52.2393Z" fill="#C70451"/>
</svg>
