<svg width="39" height="52" viewBox="0 0 39 52" fill="none" xmlns="http://www.w3.org/2000/svg">
<path d="M10.9131 36.7188V37.8027C10.9131 39.0186 10.9131 40.3369 10.5615 42.124L9.41895 42.0215C9.58008 41.2598 9.66797 40.5786 9.72656 39.9561L1.78711 40.3369L1.62598 39.3555L9.77051 39.0918C9.78516 38.6377 9.78516 38.2129 9.78516 37.8027V37.6562H1.94824V36.7188H10.9131ZM12.3926 43.0029V43.9404H0.541992V43.0029H5.37598V41.084H6.5332V43.0029H12.3926ZM11.2207 47.9541V48.8916H2.05078V45.0537H3.20801V47.9541H11.2207ZM24.5508 36.0889V45.8447H23.4521V36.0889H24.5508ZM22.0166 36.3525V45.5078H20.9033V40.7178H19.1455V39.7949H20.9033V36.3525H22.0166ZM24.9463 47.8516V48.8184H16.0547V44.7607H17.2266V47.8516H24.9463ZM19.0723 37.1582V38.1104H15.2051V39.9121H18.5303V40.8203H15.2051V42.7246C17.0874 42.7173 18.2593 42.666 19.6582 42.373L19.7754 43.3105C18.2666 43.6182 17.0361 43.6768 14.9268 43.6768H14.1064V37.1582H19.0723ZM38.3789 46.46V47.4268H26.4551V46.46H38.3789ZM32.9883 39.1211C32.9883 41.2744 35.1416 42.9004 37.6172 43.3398L37.1484 44.2773C35.0903 43.8599 33.2153 42.7319 32.4023 41.0254C31.5747 42.7319 29.6997 43.8599 27.6416 44.2773L27.1875 43.3398C29.6484 42.9004 31.8164 41.2744 31.8164 39.1211H27.5684V38.1836H31.8311V36.3965H32.959V38.1836H37.2363V39.1211H32.9883Z" fill="black"/>
<path d="M9.77634 22.2137C9.78278 22.5877 9.89159 22.9527 10.0909 23.2691C10.2903 23.5855 10.5725 23.8413 10.907 24.0083C11.241 24.1971 11.6181 24.2964 12.0017 24.2964C12.3854 24.2964 12.7625 24.1971 13.0965 24.0083L28.6204 14.4069C28.9581 14.2442 29.2431 13.9895 29.4427 13.672C29.6421 13.3545 29.7478 12.9872 29.7478 12.6123C29.7478 12.2373 29.6421 11.87 29.4427 11.5525C29.2431 11.2351 28.9581 10.9803 28.6204 10.8176L13.0965 1.2879C12.7625 1.09917 12.3854 1 12.0017 1C11.6181 1 11.241 1.09917 10.907 1.2879C10.5725 1.45514 10.2903 1.71086 10.0909 2.02727C9.89159 2.34367 9.78278 2.70867 9.77634 3.08257V22.2137Z" fill="black" stroke="black" stroke-width="1.69201" stroke-linecap="round" stroke-linejoin="round"/>
</svg>
