<svg width="29" height="48" viewBox="0 0 29 48" fill="none" xmlns="http://www.w3.org/2000/svg">
<path d="M17.6304 42.49V45.2537H10.9715V42.49H17.6304ZM11.8202 43.1537V44.59H16.7926V43.1537H11.8202ZM18.1962 36.5274V37.1912H10.3513V36.5274H13.8766V35.5699H14.7253V36.5274H18.1962ZM14.3009 37.5829C16.303 37.5937 17.4345 38.0507 17.4345 38.9538C17.4345 39.8025 16.4607 40.254 14.7253 40.3139V41.0647H18.7076V41.7501H9.89428V41.0647H13.8766V40.3139C12.1357 40.254 11.1564 39.8025 11.1564 38.9538C11.1564 38.0507 12.2989 37.5937 14.3009 37.5829ZM14.3009 38.1813C12.8756 38.1922 12.0595 38.4533 12.0704 38.9538C12.0595 39.4434 12.8756 39.7263 14.3009 39.7263C15.7154 39.7263 16.5315 39.4434 16.5315 38.9538C16.5315 38.4533 15.7154 38.1922 14.3009 38.1813Z" fill="black"/>
<g clip-path="url(#clip0_375_1746)">
<path d="M3.62468 23.2038C3.62468 24.8655 4.60987 25.8269 6.30725 25.8269H22.462C24.1475 25.8269 25.1327 24.8655 25.1327 23.2038V9.94519L23.4472 9.82649V22.9545C23.4472 23.726 23.0318 24.1533 22.284 24.1533H6.48529C5.72563 24.1533 5.31018 23.726 5.31018 22.9545V9.83836L3.62468 9.94519V23.2038ZM0.206186 12.5803C0.206186 13.055 0.55041 13.3755 1.07268 13.3755C1.28634 13.3755 1.45251 13.3043 1.60682 13.1856L13.9632 2.82333C14.2125 2.5978 14.533 2.58593 14.7941 2.82333L27.1506 13.1856C27.293 13.3043 27.4591 13.3755 27.6847 13.3755C28.1951 13.3755 28.5394 13.055 28.5394 12.5803C28.5394 12.2717 28.4207 12.0581 28.1595 11.8443L15.803 1.45831C14.9246 0.710512 13.8445 0.710512 12.9543 1.45831L0.586019 11.8443C0.324884 12.0581 0.206186 12.2717 0.206186 12.5803ZM22.1534 7.26262L25.1327 9.77901V4.29518C25.1327 3.77291 24.8003 3.44056 24.278 3.44056H23.008C22.4976 3.44056 22.1534 3.77291 22.1534 4.29518V7.26262Z" fill="black" fill-opacity="0.85"/>
</g>
<defs>
<clipPath id="clip0_375_1746">
<rect width="28.3332" height="26.9384" fill="white" transform="translate(0.206186 0.897461)"/>
</clipPath>
</defs>
</svg>
