<svg width="115" height="115" viewBox="0 0 115 115" fill="none" xmlns="http://www.w3.org/2000/svg">
<path d="M115 57.5C115 89.2564 89.2564 115 57.5 115C25.7436 115 0 89.2564 0 57.5C0 25.7436 25.7436 0 57.5 0C89.2564 0 115 25.7436 115 57.5Z" fill="#D9D9D9"/>
<path d="M77.9029 38.9514C77.9029 50.2198 68.7681 59.3547 57.4997 59.3547C46.2313 59.3547 37.0964 50.2198 37.0964 38.9514C37.0964 27.6831 46.2313 18.5482 57.4997 18.5482C68.7681 18.5482 77.9029 27.6831 77.9029 38.9514Z" fill="white"/>
<mask id="mask0_167_1496" style="mask-type:alpha" maskUnits="userSpaceOnUse" x="0" y="0" width="115" height="115">
<path d="M115 57.5C115 89.2564 89.2564 115 57.5 115C25.7436 115 0 89.2564 0 57.5C0 25.7436 25.7436 0 57.5 0C89.2564 0 115 25.7436 115 57.5Z" fill="#EDEDED"/>
</mask>
<g mask="url(#mask0_167_1496)">
<path d="M100.161 98.3064C100.161 115.721 81.8917 129.839 59.3549 129.839C36.8181 129.839 18.5485 115.721 18.5485 98.3064C18.5485 80.8916 36.8181 66.7742 59.3549 66.7742C81.8917 66.7742 100.161 80.8916 100.161 98.3064Z" fill="white"/>
</g>
<path fill-rule="evenodd" clip-rule="evenodd" d="M57.5 113.145C88.232 113.145 113.145 88.232 113.145 57.5C113.145 26.768 88.232 1.85484 57.5 1.85484C26.768 1.85484 1.85484 26.768 1.85484 57.5C1.85484 88.232 26.768 113.145 57.5 113.145ZM57.5 115C89.2564 115 115 89.2564 115 57.5C115 25.7436 89.2564 0 57.5 0C25.7436 0 0 25.7436 0 57.5C0 89.2564 25.7436 115 57.5 115Z" fill="#D9D9D9"/>
</svg>
