<svg width="79" height="109" viewBox="0 0 79 109" fill="none" xmlns="http://www.w3.org/2000/svg">
<rect x="0.858696" y="0.858696" width="77.2826" height="107.051" rx="3.81085" stroke="#D1D1D1" stroke-width="1.71739"/>
<path d="M20.593 77.9883C22.1828 77.9883 23.3654 79.3001 23.6045 81.4133H25.6465V77.1611H27.275V88.9483H25.6465V82.7316H23.6174C23.4429 84.9934 22.2345 86.3763 20.593 86.3763C18.8094 86.3763 17.5299 84.7607 17.5428 82.1758C17.5299 79.6168 18.8094 77.9883 20.593 77.9883ZM20.593 79.4746C19.7142 79.4746 19.1067 80.431 19.1196 82.1758C19.1067 83.9336 19.7142 84.8771 20.593 84.8771C21.4848 84.8771 22.0664 83.9336 22.0664 82.1758C22.0664 80.431 21.4848 79.4746 20.593 79.4746ZM38.568 77.1611V88.9483H36.9266V84.205H34.9104V82.8479H36.9266V80.9997H34.9491V79.6555H36.9266V77.1611H38.568ZM34.3288 78.1434V82.667H30.7099V84.9546C32.1639 84.9481 33.4564 84.8771 34.9362 84.6573L35.0655 86.0015C33.3077 86.2858 31.8085 86.3117 29.999 86.3117H29.0685V81.3874H32.7132V79.4487H29.0426V78.1434H34.3288ZM50.0032 77.174V88.9225H48.323V86.3246H45.9319V85.0839H48.323V77.174H50.0032ZM39.9091 83.1322C42.1063 83.1322 45.0402 83.1193 47.5734 82.7833L47.6638 83.9853C46.6299 84.1727 45.5636 84.289 44.5232 84.3601V88.5735H42.8559V84.4376C41.8801 84.4699 40.956 84.4764 40.1159 84.4764L39.9091 83.1322ZM43.7606 77.6393C45.4925 77.6393 46.772 78.6474 46.785 80.0562C46.772 81.5037 45.4925 82.4602 43.7606 82.4602C42.0029 82.4602 40.7363 81.5037 40.7363 80.0562C40.7363 78.6474 42.0029 77.6393 43.7606 77.6393ZM43.7606 78.893C42.8817 78.893 42.2872 79.3453 42.2872 80.0562C42.2872 80.7929 42.8817 81.2065 43.7606 81.2065C44.6136 81.2065 45.2082 80.7929 45.2211 80.0562C45.2082 79.3453 44.6136 78.893 43.7606 78.893ZM62.0329 86.1954V87.5525H51.2667V86.1954H53.6707V83.3132C52.7595 82.7704 52.2102 81.9367 52.2102 80.8963C52.2102 78.9964 54.0713 77.7298 56.6304 77.7298C59.1765 77.7298 61.0506 78.9964 61.0635 80.8963C61.0571 81.9109 60.5207 82.738 59.6418 83.2873V86.1954H62.0329ZM56.6304 79.0352C54.9502 79.0352 53.8387 79.7072 53.8387 80.8963C53.8387 82.0466 54.9502 82.7574 56.6304 82.7574C58.2977 82.7574 59.4221 82.0466 59.435 80.8963C59.4221 79.7072 58.2977 79.0352 56.6304 79.0352ZM55.2992 86.1954H57.9746V83.9077C57.5545 83.9917 57.1022 84.037 56.6304 84.037C56.1587 84.037 55.7128 83.9982 55.2992 83.9077V86.1954Z" fill="#5A5A5A"/>
<circle cx="39.7506" cy="41.7506" r="25.7506" fill="#00E8F7"/>
<circle cx="33.6124" cy="35.9117" r="6.13824" fill="white"/>
<circle cx="33.7622" cy="36.062" r="2.69483" fill="black"/>
<circle cx="45.8888" cy="35.9117" r="6.13824" fill="white"/>
<circle cx="46.0386" cy="36.062" r="2.69483" fill="black"/>
<path fill-rule="evenodd" clip-rule="evenodd" d="M36.6057 51.8452C35.9977 52.0996 35.2978 51.8149 35.0405 51.2074C34.7826 50.5983 35.0672 49.8954 35.6763 49.6374L36.1434 50.7403C35.6763 49.6374 35.6766 49.6373 35.6769 49.6372L35.6789 49.6363L35.682 49.635L35.6897 49.6318C35.6956 49.6294 35.7029 49.6264 35.7115 49.6229C35.7288 49.6159 35.7515 49.6069 35.7796 49.5962C35.8356 49.5747 35.913 49.5463 36.0103 49.5133C36.2048 49.4473 36.4796 49.3628 36.8235 49.2794C37.51 49.1127 38.4797 48.9481 39.6391 48.947C40.8004 48.9459 41.725 49.1092 42.3743 49.2803C42.6987 49.3659 42.9543 49.4533 43.1364 49.5232C43.2274 49.5581 43.3002 49.5887 43.3541 49.6124C43.381 49.6243 43.4033 49.6345 43.4207 49.6427C43.4295 49.6468 43.437 49.6504 43.4433 49.6534L43.4519 49.6576L43.4556 49.6594L43.4572 49.6602L43.458 49.6606C43.4584 49.6608 43.4587 49.661 42.9261 50.7337L43.4587 49.661C44.0512 49.9551 44.293 50.6739 43.9989 51.2663C43.7063 51.8558 42.9934 52.0982 42.4027 51.811C42.4006 51.81 42.3955 51.8077 42.3877 51.8043C42.3683 51.7957 42.3317 51.7801 42.2784 51.7597C42.1718 51.7188 41.9988 51.6586 41.7637 51.5966C41.2938 51.4728 40.5755 51.3415 39.6414 51.3424C38.7053 51.3433 37.9266 51.4765 37.3886 51.6072C37.1201 51.6723 36.9137 51.7363 36.7799 51.7817C36.713 51.8044 36.6646 51.8223 36.6358 51.8333C36.6215 51.8388 36.6121 51.8426 36.6078 51.8443C36.6068 51.8447 36.6062 51.845 36.6057 51.8452Z" fill="black"/>
<path fill-rule="evenodd" clip-rule="evenodd" d="M32.3043 28.0919C32.712 27.574 33.462 27.4827 33.9822 27.8886C34.5036 28.2955 34.5965 29.0482 34.1895 29.5697L33.2453 28.8328C34.1895 29.5697 34.1893 29.5699 34.1891 29.5702L34.1878 29.5719L34.1857 29.5745L34.1805 29.5811C34.1766 29.5861 34.1717 29.5922 34.1658 29.5995C34.1541 29.6139 34.1386 29.6329 34.1193 29.6559C34.0807 29.7019 34.0269 29.7644 33.9579 29.8405C33.8201 29.9926 33.6209 30.2001 33.361 30.4401C32.842 30.9194 32.0745 31.5346 31.0618 32.099C30.0474 32.6644 29.16 32.9711 28.5094 33.137C28.1843 33.22 27.9184 33.2678 27.7253 33.2952C27.6288 33.3089 27.5503 33.3176 27.4917 33.323C27.4624 33.3257 27.438 33.3276 27.4187 33.329C27.4091 33.3296 27.4008 33.3301 27.3938 33.3306L27.3842 33.3311L27.3802 33.3313L27.3783 33.3314L27.3775 33.3314C27.3771 33.3314 27.3766 33.3315 27.3207 32.1351L27.3766 33.3315C26.7159 33.3623 26.1552 32.8517 26.1243 32.191C26.0936 31.5336 26.5988 30.9753 27.2546 30.9392C27.257 30.939 27.2625 30.9386 27.271 30.9378C27.2921 30.9358 27.3317 30.9317 27.3882 30.9236C27.5013 30.9076 27.6817 30.8761 27.9173 30.816C28.3881 30.6959 29.0796 30.4614 29.8956 30.0067C30.7133 29.5509 31.329 29.0561 31.7358 28.6804C31.9387 28.493 32.088 28.3367 32.1829 28.232C32.2303 28.1797 32.2639 28.1405 32.2837 28.1169C32.2936 28.1051 32.3 28.0972 32.3029 28.0937C32.3035 28.0929 32.304 28.0923 32.3043 28.0919Z" fill="black"/>
<path fill-rule="evenodd" clip-rule="evenodd" d="M47.0607 28.0919C46.653 27.574 45.903 27.4827 45.3828 27.8886C44.8614 28.2955 44.7685 29.0482 45.1754 29.5697L46.1197 28.8328C45.1754 29.5697 45.1756 29.5699 45.1758 29.5702L45.1772 29.5719L45.1792 29.5745L45.1845 29.5811C45.1884 29.5861 45.1933 29.5922 45.1992 29.5995C45.2109 29.6139 45.2264 29.6329 45.2457 29.6559C45.2843 29.7019 45.3381 29.7644 45.4071 29.8405C45.5449 29.9926 45.7441 30.2001 46.004 30.4401C46.523 30.9194 47.2905 31.5346 48.3032 32.099C49.3176 32.6644 50.205 32.9711 50.8556 33.137C51.1807 33.22 51.4466 33.2678 51.6397 33.2952C51.7362 33.3089 51.8147 33.3176 51.8733 33.323C51.9026 33.3257 51.927 33.3276 51.9463 33.329C51.9559 33.3296 51.9642 33.3301 51.9712 33.3306L51.9808 33.3311L51.9848 33.3313L51.9866 33.3314L51.9875 33.3314C51.9879 33.3314 51.9884 33.3315 52.0443 32.1351L51.9884 33.3315C52.6491 33.3623 53.2098 32.8517 53.2407 32.191C53.2714 31.5336 52.7662 30.9753 52.1104 30.9392C52.108 30.939 52.1025 30.9386 52.094 30.9378C52.0729 30.9358 52.0333 30.9317 51.9768 30.9236C51.8637 30.9076 51.6833 30.8761 51.4477 30.816C50.9769 30.6959 50.2853 30.4614 49.4694 30.0067C48.6517 29.5509 48.036 29.0561 47.6292 28.6804C47.4263 28.493 47.277 28.3367 47.1821 28.232C47.1347 28.1797 47.1011 28.1405 47.0813 28.1169C47.0714 28.1051 47.065 28.0972 47.0621 28.0937C47.0615 28.0929 47.061 28.0923 47.0607 28.0919Z" fill="black"/>
</svg>
