<svg width="30" height="48" viewBox="0 0 30 48" fill="none" xmlns="http://www.w3.org/2000/svg">
<path d="M17.6304 42.49V45.2537H10.9714V42.49H17.6304ZM11.8201 43.1537V44.59H16.7926V43.1537H11.8201ZM18.1962 36.5274V37.1912H10.3513V36.5274H13.8766V35.5699H14.7253V36.5274H18.1962ZM14.3009 37.5829C16.3029 37.5937 17.4345 38.0507 17.4345 38.9538C17.4345 39.8025 16.4607 40.254 14.7253 40.3139V41.0647H18.7076V41.7501H9.89427V41.0647H13.8766V40.3139C12.1357 40.254 11.1564 39.8025 11.1564 38.9538C11.1564 38.0507 12.2989 37.5937 14.3009 37.5829ZM14.3009 38.1813C12.8756 38.1922 12.0595 38.4533 12.0704 38.9538C12.0595 39.4434 12.8756 39.7263 14.3009 39.7263C15.7154 39.7263 16.5314 39.4434 16.5314 38.9538C16.5314 38.4533 15.7154 38.1922 14.3009 38.1813Z" fill="black"/>
<g clip-path="url(#clip0_344_1809)">
<path d="M4.23807 23.1388C4.23807 24.8006 5.22327 25.762 6.92064 25.762H23.0754C24.7609 25.762 25.7461 24.8006 25.7461 23.1388V9.88025L24.0606 9.76155V22.8895C24.0606 23.6611 23.6452 24.0884 22.8974 24.0884H7.09869C6.33902 24.0884 5.92358 23.6611 5.92358 22.8895V9.77342L4.23807 9.88025V23.1388ZM0.81958 12.5154C0.81958 12.9901 1.1638 13.3106 1.68607 13.3106C1.89973 13.3106 2.06591 13.2394 2.22021 13.1207L14.5766 2.75839C14.8259 2.53286 15.1464 2.52099 15.4075 2.75839L27.764 13.1207C27.9064 13.2394 28.0725 13.3106 28.2981 13.3106C28.8085 13.3106 29.1528 12.9901 29.1528 12.5154C29.1528 12.2067 29.034 11.9931 28.7729 11.7794L16.4164 1.39337C15.538 0.645571 14.4579 0.645571 13.5677 1.39337L1.19941 11.7794C0.938278 11.9931 0.81958 12.2067 0.81958 12.5154ZM22.7668 7.19768L25.7461 9.71407V4.23024C25.7461 3.70797 25.4137 3.37561 24.8914 3.37561H23.6214C23.111 3.37561 22.7668 3.70797 22.7668 4.23024V7.19768Z" fill="black" fill-opacity="0.85"/>
</g>
<path d="M5.1134 9.93555L15.1134 1.93555L25.1134 9.43555L24.1134 24.9355L5.1134 24.18V9.93555Z" fill="#262626"/>
<defs>
<clipPath id="clip0_344_1809">
<rect width="28.3332" height="26.9384" fill="white" transform="translate(0.81958 0.83252)"/>
</clipPath>
</defs>
</svg>
