<svg width="49" height="47" viewBox="0 0 49 47" fill="none" xmlns="http://www.w3.org/2000/svg">
<path d="M5.25534 35.6906V41.9252H0.794285V35.6906H5.25534ZM1.62121 36.3761V41.2289H4.40665V36.3761H1.62121ZM7.87757 34.7114V38.574H9.49878V39.3139H7.87757V44.3843H7.02888V34.7114H7.87757ZM17.9965 34.7114V44.406H17.137V34.7114H17.9965ZM12.85 35.4622C14.2863 35.473 15.3199 36.7787 15.3199 38.8351C15.3199 40.8916 14.2863 42.1973 12.85 42.1973C11.4029 42.1973 10.3801 40.8916 10.3801 38.8351C10.3801 36.7787 11.4029 35.473 12.85 35.4622ZM12.85 36.2238C11.8816 36.2347 11.207 37.2575 11.207 38.8351C11.207 40.4128 11.8816 41.4356 12.85 41.4356C13.8184 41.4356 14.493 40.4128 14.493 38.8351C14.493 37.2575 13.8184 36.2347 12.85 36.2238ZM27.9741 34.7114V44.3843H27.1471V34.7114H27.9741ZM26.0808 34.9508V43.8729H25.2648V39.1616H23.9156V38.389H25.2648V34.9508H26.0808ZM24.1985 35.9518V36.659H23.3824V41.131C23.7469 41.1092 24.0951 41.0766 24.4161 41.033L24.4705 41.6641C22.9472 41.947 20.9125 41.9905 19.6504 41.9905L19.5416 41.2615L20.5644 41.2506V36.659H19.7483V35.9518H24.1985ZM21.3478 41.2398C21.7504 41.2289 22.1747 41.2126 22.5882 41.1854V36.659H21.3478V41.2398ZM37.2552 34.7114V44.406H36.3957V34.7114H37.2552ZM32.1087 35.4622C33.5449 35.473 34.5786 36.7787 34.5786 38.8351C34.5786 40.8916 33.5449 42.1973 32.1087 42.1973C30.6616 42.1973 29.6388 40.8916 29.6388 38.8351C29.6388 36.7787 30.6616 35.473 32.1087 35.4622ZM32.1087 36.2238C31.1403 36.2347 30.4657 37.2575 30.4657 38.8351C30.4657 40.4128 31.1403 41.4356 32.1087 41.4356C33.0771 41.4356 33.7517 40.4128 33.7517 38.8351C33.7517 37.2575 33.0771 36.2347 32.1087 36.2238ZM42.3691 37.6818C42.3691 39.3248 43.566 40.9895 44.9914 41.6097L44.5126 42.2843C43.381 41.7675 42.4018 40.6522 41.9557 39.3139C41.4987 40.7338 40.5249 41.9688 39.4205 42.5237L38.9091 41.8491C40.2909 41.1854 41.4987 39.3574 41.5096 37.6818V36.4196H39.2246V35.7124H44.6758V36.4196H42.3691V37.6818ZM46.8846 34.7114V44.3843H46.025V34.7114H46.8846Z" fill="black"/>
<path d="M24.833 12.0155C27.8501 12.0155 30.2958 9.56967 30.2958 6.55265C30.2958 3.53563 27.8501 1.08984 24.833 1.08984C21.816 1.08984 19.3702 3.53563 19.3702 6.55265C19.3702 9.56967 21.816 12.0155 24.833 12.0155Z" stroke="black" stroke-width="1.5234" stroke-linecap="round" stroke-linejoin="round"/>
<path d="M15.0001 25.9995H24.8331H34.6662V24.815C34.6488 23.1495 34.2095 21.5154 33.3895 20.0658C32.5694 18.616 31.3952 17.3978 29.9767 16.5249C28.5582 15.6519 26.9416 15.1528 25.2778 15.074C25.1295 15.067 24.9812 15.0633 24.8331 15.063C24.685 15.0633 24.5367 15.067 24.3884 15.074C22.7247 15.1528 21.108 15.6519 19.6895 16.5249C18.271 17.3978 17.0968 18.616 16.2768 20.0658C15.4567 21.5154 15.0175 23.1495 15.0001 24.815V25.9995Z" stroke="black" stroke-width="1.5234" stroke-linecap="round" stroke-linejoin="round"/>
</svg>
