<svg width="27" height="46" viewBox="0 0 27 46" fill="none" xmlns="http://www.w3.org/2000/svg">
<path d="M11.6146 36.9865V37.6937H4.9557V34.2119H5.82615V36.9865H11.6146ZM12.6483 39.0973V39.8045H10.3525V43.3843H9.5038V39.8045H6.99038V43.3843H6.14169V39.8045H3.835V39.0973H12.6483ZM18.2845 35.1368C18.2845 36.7906 20.1777 38.2704 21.8642 38.5859L21.4725 39.304C20.0145 38.9667 18.4749 37.9276 17.8492 36.4968C17.2236 37.9222 15.6894 38.9613 14.226 39.304L13.8343 38.5859C15.5099 38.2595 17.3923 36.8015 17.3923 35.1368V34.3969H18.2845V35.1368ZM22.3212 41.3605V42.0677H13.4643V41.3605H22.3212Z" fill="black"/>
<path d="M8.91309 0.0507812H23.1387C24.3704 0.050848 25.2818 0.355919 25.8857 0.954102C26.4895 1.55219 26.7948 2.45147 26.7949 3.65918V21.6621C26.7949 22.8702 26.4896 23.7671 25.8857 24.3623C25.2818 24.9576 24.3705 25.2597 23.1387 25.2598H3.56543C2.37516 25.2598 1.49893 24.9578 0.919922 24.373C0.340844 23.7882 0.0507812 22.912 0.0507812 21.7451V11.5098C0.0508519 10.8184 0.267734 10.2779 0.664062 9.91016C1.06098 9.54191 1.64392 9.34082 2.38477 9.34082H5.25684V3.65918C5.25691 2.45153 5.56462 1.55224 6.16992 0.954102C6.77547 0.355782 7.68714 0.0507812 8.91309 0.0507812ZM2.59668 11.1406C2.36914 11.1407 2.18105 11.206 2.0498 11.334C1.91838 11.4622 1.85061 11.6477 1.85059 11.876V21.7451C1.85059 22.7176 2.60523 23.46 3.56543 23.46C4.51369 23.4598 5.25684 22.753 5.25684 21.7451V11.1406H2.59668ZM8.94824 1.85059C8.3493 1.85061 7.87392 2.01182 7.54883 2.33691C7.22378 2.662 7.05668 3.14318 7.05664 3.76562V21.627C7.05664 22.3044 6.91588 22.8869 6.66016 23.3867L6.62305 23.46H23.1025C23.7013 23.46 24.1768 23.3016 24.502 22.9795C24.8272 22.6573 24.9951 22.1791 24.9951 21.5566V3.76562C24.9951 3.14315 24.827 2.662 24.502 2.33691C24.1769 2.0119 23.7015 1.85059 23.1025 1.85059H8.94824ZM10.873 13.957H13.9297C14.3681 13.957 14.7148 14.0893 14.9512 14.3271C15.1876 14.565 15.3203 14.9141 15.3203 15.3584V18.168C15.3203 18.6063 15.1876 18.953 14.9512 19.1895C14.7147 19.4258 14.368 19.5576 13.9297 19.5576H10.873C10.4286 19.5576 10.0787 19.4259 9.84082 19.1895C9.60299 18.9531 9.4707 18.6063 9.4707 18.168V15.3584C9.47074 14.9141 9.604 14.5649 9.8418 14.3271C10.0796 14.0895 10.4288 13.957 10.873 13.957ZM17.4951 18.207H21.8867C22.2822 18.207 22.5684 18.5135 22.5684 18.9004C22.5682 19.2728 22.2848 19.5576 21.8867 19.5576H17.4951C17.097 19.5575 16.8136 19.2727 16.8135 18.9004C16.8135 18.5135 17.0996 18.2071 17.4951 18.207ZM17.4951 13.957H21.8867C22.2828 13.957 22.5684 14.2521 22.5684 14.6504C22.5683 15.0228 22.2849 15.3086 21.8867 15.3086H17.4951C17.097 15.3085 16.8135 15.0227 16.8135 14.6504C16.8135 14.2522 17.0991 13.9571 17.4951 13.957ZM10.1758 9.79004H21.8984C22.2837 9.79004 22.5801 10.0863 22.5801 10.4717C22.5798 10.8445 22.2841 11.1406 21.8984 11.1406H10.1758C9.77785 11.1405 9.48268 10.8439 9.48242 10.4717C9.48242 10.087 9.77822 9.79021 10.1758 9.79004ZM10.1758 5.63379H21.8984C22.2853 5.63379 22.58 5.92014 22.5801 6.29199C22.5801 6.67843 22.2827 6.98535 21.8984 6.98535H10.1758C9.77927 6.98517 9.48242 6.67777 9.48242 6.29199C9.48252 5.92077 9.77664 5.63396 10.1758 5.63379Z" fill="black" fill-opacity="0.85" stroke="white" stroke-width="0.100738"/>
</svg>
