<svg width="28" height="48" viewBox="0 0 28 48" fill="none" xmlns="http://www.w3.org/2000/svg">
<path d="M13.6146 38.9865V39.6937H6.9557V36.2119H7.82615V38.9865H13.6146ZM14.6483 41.0973V41.8045H12.3525V45.3843H11.5038V41.8045H8.99037V45.3843H8.14168V41.8045H5.83499V41.0973H14.6483ZM20.2845 37.1368C20.2845 38.7906 22.1777 40.2704 23.8642 40.5859L23.4725 41.304C22.0145 40.9667 20.4749 39.9276 19.8492 38.4968C19.2236 39.9222 17.6894 40.9613 16.226 41.304L15.8343 40.5859C17.5099 40.2595 19.3922 38.8015 19.3922 37.1368V36.3969H20.2845V37.1368ZM24.3212 43.3605V44.0677H15.4643V43.3605H24.3212Z" fill="black"/>
<g clip-path="url(#clip0_362_1733)">
<path d="M1 12.4258V22.8906C1 23.7461 1.62109 24.2969 2.44141 24.2969C3.26172 24.2852 3.88281 23.7461 3.88281 22.8906V10.2227H3.30859C1.87891 10.2227 1 11.0312 1 12.4258ZM4.96094 26.125H23.5C25.9609 26.125 27.1797 24.918 27.1797 22.5039V4.63281C27.1797 2.21875 25.9609 1 23.5 1H9.84766C7.39844 1 6.16797 2.21875 6.16797 4.63281V23.6641C6.16797 24.918 5.875 25.6211 4.96094 26.125ZM10.8672 7.98438C10.4453 7.98438 10.1289 7.65625 10.1289 7.24609C10.1289 6.84766 10.4453 6.54297 10.8672 6.54297H22.5039C22.9141 6.54297 23.2305 6.84766 23.2305 7.24609C23.2305 7.65625 22.9141 7.98438 22.5039 7.98438H10.8672ZM10.8672 12.1094C10.4453 12.1094 10.1289 11.793 10.1289 11.3945C10.1289 10.9844 10.4453 10.668 10.8672 10.668H22.5039C22.9141 10.668 23.2305 10.9844 23.2305 11.3945C23.2305 11.793 22.9141 12.1094 22.5039 12.1094H10.8672ZM18.1328 16.2461C17.7109 16.2461 17.4062 15.9414 17.4062 15.543C17.4062 15.1211 17.7109 14.8047 18.1328 14.8047H22.5039C22.9141 14.8047 23.2188 15.1211 23.2188 15.543C23.2188 15.9414 22.9141 16.2461 22.5039 16.2461H18.1328ZM18.1328 20.4648C17.7109 20.4648 17.4062 20.1602 17.4062 19.7617C17.4062 19.3516 17.7109 19.0234 18.1328 19.0234H22.5039C22.9141 19.0234 23.2188 19.3516 23.2188 19.7617C23.2188 20.1602 22.9141 20.4648 22.5039 20.4648H18.1328ZM11.5 20.5234C10.6328 20.5234 10.1172 20.0078 10.1172 19.1523V16.1875C10.1172 15.3203 10.6328 14.8047 11.5 14.8047H14.4297C15.2852 14.8047 15.8008 15.3203 15.8008 16.1875V19.1523C15.8008 20.0078 15.2852 20.5234 14.4297 20.5234H11.5Z" fill="black" fill-opacity="0.85"/>
</g>
<defs>
<clipPath id="clip0_362_1733">
<rect width="26.1797" height="25.1367" fill="white" transform="translate(1 1)"/>
</clipPath>
</defs>
</svg>
