<svg width="79" height="109" viewBox="0 0 79 109" fill="none" xmlns="http://www.w3.org/2000/svg">
<rect x="0.75" y="0.75" width="77.5" height="107.5" rx="3.32846" stroke="#D1D1D1" stroke-width="1.5"/>
<path d="M24.3339 81.1023V81.8103C24.3221 82.5774 24.3221 83.6276 24.0861 84.9611L22.5166 84.8313C22.6818 83.8518 22.7231 83.0907 22.7408 82.4475H19.649V81.1023H24.3339ZM22.08 83.604V85.6219C22.9355 85.5983 23.8029 85.5393 24.5581 85.4449L24.6407 86.6486C22.906 86.9908 20.7111 87.038 19.2832 87.038L19.1416 85.6809L20.5223 85.6691V83.604H22.08ZM28.8064 80.3116V88.4659H27.1779V84.8195H26.5525V88.2417H24.9712V80.5004H26.5525V83.4388H27.1779V80.3116H28.8064ZM29.0188 89.5988V90.9559H20.8763V87.6517H22.6228V89.5988H29.0188ZM38.2323 80.2998V82.5183H39.6366V83.899H38.2323V85.7871H36.533V80.2998H38.2323ZM32.1786 86.6722V89.5516C32.7391 89.5162 33.2406 89.4395 33.7363 89.2684L33.9723 90.59C33.1108 90.8733 32.2848 90.9559 31.1519 90.9559H30.5147V86.6722H32.1786ZM39.0466 86.802V88.0057H33.6064V86.802H35.5182V86.0468H37.1703V86.802H39.0466ZM36.3206 88.2181C37.5597 88.2181 38.4329 88.7963 38.4447 89.6814C38.4329 90.5664 37.5597 91.1565 36.3206 91.1565C35.0697 91.1565 34.1965 90.5664 34.1965 89.6814C34.1965 88.7963 35.0697 88.2181 36.3206 88.2181ZM36.3206 89.3274C35.9902 89.3392 35.7306 89.4454 35.7306 89.6814C35.7306 89.9292 35.9902 90.0354 36.3206 90.0236C36.6392 90.0354 36.9106 89.9292 36.9106 89.6814C36.9106 89.4454 36.6392 89.3392 36.3206 89.3274ZM35.7896 81.1967V82.5301H33.7009C33.754 83.3562 34.4679 84.2 36.1672 84.5363L35.471 85.8225C34.226 85.5747 33.3881 85.026 32.8984 84.3003C32.4146 85.1558 31.5531 85.8107 30.2196 86.094L29.4998 84.7723C31.2345 84.4124 31.9307 83.4801 31.9898 82.5301H29.901V81.1967H31.9898V80.2762H33.7009V81.1967H35.7896ZM42.8554 81.0433C44.5193 81.0433 45.7347 82.542 45.7465 84.9139C45.7347 87.3212 44.5193 88.8199 42.8554 88.8199C41.1679 88.8199 39.9406 87.3212 39.9524 84.9139C39.9406 82.542 41.1679 81.0433 42.8554 81.0433ZM42.8554 82.5774C42.1001 82.5774 41.5927 83.368 41.6045 84.9139C41.5927 86.4834 42.1001 87.274 42.8554 87.274C43.6224 87.274 44.1062 86.4834 44.118 84.9139C44.1062 83.368 43.6224 82.5774 42.8554 82.5774ZM48.5197 80.2998V84.3121H50.0538V85.7163H48.5197V91.1329H46.8204V80.2998H48.5197ZM60.1524 88.5249V89.9056H50.2516V88.5249H52.3875V85.9524C51.5792 85.439 51.0894 84.672 51.0894 83.722C51.0894 81.9519 52.8241 80.7836 55.1843 80.7836C57.5444 80.7836 59.3027 81.9519 59.3027 83.722C59.3027 84.6543 58.8248 85.4095 58.0401 85.917V88.5249H60.1524ZM55.1843 82.1171C53.7092 82.1053 52.7651 82.6836 52.7769 83.722C52.7651 84.7487 53.7092 85.3505 55.1843 85.3505C56.6476 85.3505 57.6152 84.7487 57.6152 83.722C57.6152 82.6836 56.6476 82.1053 55.1843 82.1171ZM54.0632 88.5249H56.3172V86.566C55.9572 86.6309 55.5796 86.6604 55.1843 86.6604C54.789 86.6604 54.4172 86.6309 54.0632 86.566V88.5249Z" fill="#5A5A5A"/>
<circle cx="39.7506" cy="44.1979" r="25.7506" fill="#F7E400"/>
<circle cx="33.6125" cy="38.3589" r="6.13824" fill="white"/>
<circle cx="33.7622" cy="38.5093" r="2.69483" fill="black"/>
<circle cx="45.889" cy="38.3589" r="6.13824" fill="white"/>
<circle cx="46.0386" cy="38.5093" r="2.69483" fill="black"/>
<path d="M28.9585 53.9492H50.7096" stroke="black" stroke-width="3.92728" stroke-linecap="round"/>
</svg>
