<svg width="44" height="35" viewBox="0 0 44 35" fill="none" xmlns="http://www.w3.org/2000/svg">
<g clip-path="url(#clip0_123_292)">
<path d="M37.7006 30.8645C38.4233 31.3528 39.3216 31.177 39.849 30.4348C42.349 26.9973 43.8138 22.2708 43.8138 17.4465C43.8138 12.6224 42.3686 7.85672 39.849 4.45829C39.3216 3.71611 38.4233 3.54032 37.7006 4.02861C36.978 4.51687 36.8608 5.43486 37.4271 6.23564C39.5561 9.24344 40.7865 13.2864 40.7865 17.4465C40.7865 21.6067 39.517 25.6107 37.4271 28.6575C36.8803 29.4583 36.978 30.3763 37.7006 30.8645Z" fill="white"/>
<path d="M30.474 25.7669C31.1186 26.2162 32.0365 26.0794 32.5638 25.3177C34.0678 23.3451 34.9663 20.4349 34.9663 17.4466C34.9663 14.4583 34.0678 11.5677 32.5638 9.57553C32.0365 8.81381 31.1186 8.65756 30.474 9.12631C29.6733 9.6732 29.5561 10.6497 30.1615 11.4505C31.2943 13.013 31.9388 15.181 31.9388 17.4466C31.9388 19.7122 31.2748 21.8607 30.1615 23.4427C29.5756 24.2631 29.6733 25.2006 30.474 25.7669Z" fill="white"/>
<path d="M4.18497 25.3959H9.79044C9.96622 25.3959 10.1225 25.4544 10.2592 25.5715L19.0678 33.4622C20.0053 34.302 20.728 34.6927 21.6655 34.6927C22.9155 34.6927 23.8725 33.7747 23.8725 32.5052V2.54425C23.8725 1.27472 22.9155 0.239563 21.6265 0.239563C20.6888 0.239563 20.0835 0.66925 19.0678 1.58722L10.2592 9.39972C10.1225 9.5169 9.96622 9.5755 9.79044 9.5755H4.18497C1.52872 9.5755 0.220123 10.9232 0.220123 13.7552V21.2357C0.220123 24.0677 1.54825 25.3959 4.18497 25.3959ZM4.32169 22.5442C3.59902 22.5442 3.26699 22.2122 3.26699 21.4895V13.5013C3.26699 12.7591 3.59902 12.4271 4.32169 12.4271H10.5717C11.0795 12.4271 11.4701 12.3294 11.9193 11.9192L20.2396 4.36066C20.3373 4.263 20.435 4.2044 20.5716 4.2044C20.7085 4.2044 20.8256 4.30206 20.8256 4.47785V30.4349C20.8256 30.6107 20.7085 30.7279 20.5716 30.7279C20.474 30.7279 20.3568 30.6692 20.2396 30.5715L11.9193 23.052C11.4701 22.6614 11.0795 22.5442 10.5717 22.5442H4.32169Z" fill="white"/>
</g>
<defs>
<clipPath id="clip0_123_292">
<rect width="43.5937" height="34.4727" fill="white" transform="translate(0.220123 0.220032)"/>
</clipPath>
</defs>
</svg>
