<svg width="41" height="44" viewBox="0 0 41 44" fill="none" xmlns="http://www.w3.org/2000/svg">
<g clip-path="url(#clip0_191_68)">
<path d="M10.3066 30.1517H15.8127C15.986 30.1517 16.14 30.2095 16.2748 30.325L24.9576 38.1029C25.8817 38.9308 26.594 39.3159 27.5182 39.3159C28.7695 39.3159 29.6936 38.411 29.6936 37.1596V7.62663C29.6936 6.37524 28.7695 5.35486 27.4795 5.35486C26.5554 5.35486 25.978 5.77842 24.9576 6.68327L16.2748 14.3842C16.14 14.4997 15.986 14.5574 15.8127 14.5574H10.3066C7.68831 14.5574 6.37915 15.8858 6.37915 18.6775V26.0509C6.37915 28.8426 7.68831 30.1517 10.3066 30.1517ZM10.4414 27.3409C9.7098 27.3409 9.38251 27.0136 9.38251 26.3013V18.4271C9.38251 17.6955 9.7098 17.3683 10.4414 17.3683H16.6021C17.1026 17.3683 17.4685 17.272 17.9112 16.8677L26.1127 9.41709C26.209 9.32083 26.3245 9.26307 26.4399 9.26307C26.5748 9.26307 26.6903 9.35932 26.6903 9.53259V35.1188C26.6903 35.292 26.5748 35.4077 26.4399 35.4077C26.3437 35.4077 26.2282 35.3498 26.1319 35.2536L17.9112 27.8415C17.4685 27.4564 17.1026 27.3409 16.6021 27.3409H10.4414Z" fill="white"/>
<path d="M35.9505 41.3373C36.528 41.9149 37.4715 41.9149 38.049 41.3373C38.6074 40.7406 38.6266 39.8165 38.049 39.2388L5.06993 6.279C4.49237 5.70143 3.52975 5.70143 2.95219 6.279C2.39387 6.83732 2.39387 7.81918 2.95219 8.3775L35.9505 41.3373Z" fill="white"/>
</g>
<defs>
<clipPath id="clip0_191_68">
<rect width="40.4273" height="43.3657" fill="white" transform="translate(0.285645 0.642822)"/>
</clipPath>
</defs>
</svg>
