<svg width="28" height="47" viewBox="0 0 28 47" fill="none" xmlns="http://www.w3.org/2000/svg">
<path d="M13.2294 39.7165V40.4237H4.41612V39.7165H8.39842V38.5522H5.59122V34.9399H6.43991V36.0606H11.2274V34.9399H12.0761V38.5522H9.24711V39.7165H13.2294ZM12.1414 41.3812V44.3843H11.2818V42.0667H5.39537V41.3812H12.1414ZM6.43991 37.8668H11.2274V36.7134H6.43991V37.8668ZM17.5055 37.6818C17.5055 39.3248 18.7024 40.9895 20.1277 41.6097L19.649 42.2843C18.5174 41.7675 17.5381 40.6522 17.092 39.3139C16.6351 40.7338 15.6612 41.9688 14.5569 42.5237L14.0455 41.8491C15.4273 41.1854 16.6351 39.3574 16.6459 37.6818V36.4196H14.361V35.7124H19.8122V36.4196H17.5055V37.6818ZM22.021 34.7114V44.3843H21.1614V34.7114H22.021Z" fill="black"/>
<g clip-path="url(#clip0_344_1863)">
<g clip-path="url(#clip1_344_1863)">
<path d="M0 9.16507C0 14.9863 4.87828 20.7117 12.5852 25.631C12.8721 25.8086 13.282 26 13.569 26C13.8559 26 14.2659 25.8086 14.5665 25.631C22.2597 20.7117 27.1379 14.9863 27.1379 9.16507C27.1379 4.32778 23.8175 0.911621 19.3901 0.911621C16.8621 0.911621 14.8125 2.11411 13.569 3.95883C12.3529 2.12777 10.2758 0.911621 7.74785 0.911621C3.32051 0.911621 0 4.32778 0 9.16507ZM2.20001 9.16507C2.20001 5.53027 4.55032 3.11163 7.72052 3.11163C10.2895 3.11163 11.7652 4.7104 12.6397 6.07686C13.0087 6.62344 13.2411 6.77376 13.569 6.77376C13.897 6.77376 14.102 6.60978 14.4982 6.07686C15.4411 4.73772 16.8621 3.11163 19.4174 3.11163C22.5877 3.11163 24.938 5.53027 24.938 9.16507C24.938 14.2483 19.5677 19.7279 13.8559 23.5266C13.7193 23.6223 13.6237 23.6906 13.569 23.6906C13.5143 23.6906 13.4187 23.6223 13.2957 23.5266C7.57022 19.7279 2.20001 14.2483 2.20001 9.16507Z" fill="black" fill-opacity="0.85"/>
</g>
</g>
<defs>
<clipPath id="clip0_344_1863">
<rect width="27.5705" height="26.3351" fill="white" transform="translate(0 0.0644531)"/>
</clipPath>
<clipPath id="clip1_344_1863">
<rect width="27.1379" height="25.9219" fill="white" transform="translate(0 0.078125)"/>
</clipPath>
</defs>
</svg>
